<svg width="688" height="752" viewBox="0 0 688 752" fill="none" xmlns="http://www.w3.org/2000/svg">
<path d="M502.24 138.746L304.809 24.7331L261.951 0L219.093 24.7331L21.6625 138.746L0.844391 150.74V452.24L21.6625 464.254L221.578 579.675L262.013 602.979L302.448 579.675L502.364 464.254L523.037 452.323V150.74L502.24 138.746Z" fill="#0088DA"/>
<path d="M261.951 449.837C262.158 449.63 262.386 449.402 262.593 449.195H262.386C262.303 449.402 262.158 449.63 261.951 449.837Z" fill="#E2B058"/>
<path opacity="0.9" d="M88.6325 324.804C87.8454 324.804 86.2918 324.741 88.6325 324.804ZM88.5704 324.804C86.2918 324.741 87.2861 324.804 88.0733 324.804H89.2747H89.2126H88.5704C89.2747 324.886 89.0676 324.804 88.5704 324.804ZM147.483 290.128C152.371 271.174 129.378 245.923 127.472 243.52C127.452 243.499 127.431 243.478 127.41 243.437C99.8184 215.203 114.008 187.011 133.272 190.118C147.13 192.396 139.963 212.717 147.42 214.706H147.565C152.04 215.141 160.781 204.39 162.066 200.765C167.037 186.7 138.327 178.083 129.585 178.663C112.04 179.719 100.523 189.248 93.4798 204.97C80.5539 233.888 104.707 253.152 119.352 272.997C130.434 287.994 129.937 301.355 116.369 314.219C101.455 328.367 86.2918 308.315 84.3032 294.602C82.5218 282.028 80.471 273.846 69.948 289.837C60.2122 304.69 73.7802 322.919 86.0432 324.845C88.9433 325.052 134.598 335.057 147.483 290.128ZM338.16 369.651C270.796 375.761 171.636 384.855 150.755 457.791C150.61 458.226 150.258 458.433 149.823 458.288C149.616 458.226 149.471 458.143 149.388 457.936C128.922 422.97 84.9454 397.304 44.1377 398.527C43.7027 398.589 43.3506 398.382 43.2884 397.967C43.2263 397.553 43.4334 397.18 43.8477 397.118C148.891 344.959 256.192 369.961 369.625 349.702C417.165 337.253 446.704 315.068 462.758 277.326C465.43 272.727 465.285 265.622 457.89 270.677C446.455 278.424 435.912 289.651 423.483 295.7C422.924 295.99 422.281 296.259 421.639 296.487C421.432 296.549 421.287 296.777 421.204 296.984C385.182 379.179 284.944 311.422 402.582 294.291C402.872 294.229 403.079 294.001 403.079 293.794L409.708 272.251C409.853 271.816 409.563 271.464 409.211 271.319C408.921 271.257 408.568 271.381 408.423 271.609C405.731 275.586 402.748 279.356 399.537 282.919C395.353 287.331 392.08 290.024 389.594 291.018C386.756 292.075 383.773 292.717 380.79 292.862C377.227 293.069 374.182 291.66 371.842 288.677C369.501 285.695 368.217 281.282 367.927 275.462C367.864 274.529 367.864 273.473 367.927 272.334C367.989 271.899 367.782 271.547 367.429 271.402C366.994 271.339 366.642 271.547 366.497 271.899C365.358 274.094 364.219 276.166 363.079 278.01C359.744 283.83 355.539 289.175 350.775 293.939C346.093 298.62 341.536 301.127 337.352 301.396C329.46 301.893 325.192 297.419 324.633 288.035C324.074 279.087 327.616 260.671 335.301 233.245C335.736 232.044 335.86 230.76 335.798 229.558C335.653 227.072 334.245 226.078 331.324 226.285C327.989 226.575 324.778 227.922 322.147 230.118C318.875 232.893 316.182 236.311 314.255 240.143C311.914 244.411 309.843 248.823 307.937 253.297C305.949 258.206 304.312 263.323 303.028 268.502C301.599 274.26 300.397 279.087 299.61 282.857C298.761 286.772 297.974 290.894 297.186 295.161C296.627 298.144 295.985 301.852 295.84 302.411L295.695 302.971C295.695 302.971 276.327 304.317 276.161 304.255C275.747 300.775 279.621 287.497 280.035 285.487C276.493 291.681 275.105 293.649 272.246 297.44C270.403 299.78 268.393 302.018 266.28 304.131C261.599 308.812 257.042 311.318 252.857 311.588C252.567 311.588 252.298 311.588 252.008 311.588C245.11 311.588 241.216 306.181 240.574 295.534C240.429 293.4 240.366 291.267 240.429 289.071C240.491 288.636 240.284 288.284 239.931 288.139C239.496 288.077 239.144 288.284 238.999 288.636C228.269 308.315 218.596 318.279 209.647 318.838C201.755 319.335 197.487 314.654 196.845 304.835C196.141 293.96 199.124 278.03 205.732 257.564C207.161 252.51 207.783 249.03 207.658 247.186C207.451 244.348 206.167 243.996 205.09 243.996H204.8C203.867 244.058 201.879 244.638 197.695 247.269C194.007 249.693 190.797 252.676 188.166 256.156C185.1 260.133 182.697 264.607 180.916 269.309C179.072 274.281 177.581 278.61 176.504 282.235C175.426 285.86 174.37 290.335 173.314 295.451C172.257 300.568 171.325 304.98 170.476 308.253C169.626 311.526 168.777 315.296 167.907 319.625L167.762 320.184L148.995 321.386C148.56 321.386 148.208 321.096 148.208 320.681C148.208 320.619 148.208 320.536 148.208 320.391C150.983 310.801 154.898 295.223 159.87 274.198C164.841 253.152 169.399 236.311 173.086 224.235C176.276 213.712 180.046 203.334 184.458 193.308C187.876 185.498 192.495 178.165 198.109 171.703C203.432 165.737 209.419 162.526 215.737 162.112C222.428 161.677 225.97 165.032 226.467 171.93C226.757 176.55 225.411 182.743 222.49 190.491C217.166 204.204 208.28 220.195 195.975 238.03C195.685 238.32 195.685 238.818 195.975 239.087C196.265 239.356 196.762 239.377 197.032 239.087C199.165 237.45 201.444 235.959 203.847 234.758C207.41 232.914 211.304 231.837 215.364 231.485C222.966 230.988 227.026 234.468 227.523 241.801C227.731 244.493 227.461 247.207 226.674 249.755C225.97 252.096 225.183 254.871 224.251 257.937C223.401 261.003 222.697 263.551 222.117 265.477C221.558 267.466 220.833 270.097 219.921 273.432C218.989 276.767 218.285 279.687 217.87 281.966C216.586 287.725 216.089 292.344 216.317 295.679C216.607 299.946 218.306 299.946 218.886 299.946H219.093C226.281 299.511 234.732 287.02 244.323 262.846C244.385 262.701 244.385 262.639 244.468 262.494C246.664 254.54 249.439 246.71 252.774 239.19C256.752 230.449 261.578 225.83 267.275 225.477L278.647 224.918C279.082 224.918 279.434 225.208 279.434 225.622C279.434 225.83 279.372 226.057 279.227 226.182C277.445 227.88 275.105 232.438 272.267 239.75C269.284 247.642 267.213 253.048 265.866 256.674C264.52 260.444 262.945 265.56 261.309 271.961C259.672 278.362 258.968 283.478 259.258 287.31C259.61 292.365 261.537 292.365 262.179 292.365H262.386C263.38 292.303 265.224 291.578 268.559 288.532C271.128 286.192 273.323 283.561 275.167 280.64C276.865 277.865 278.73 274.384 280.781 270.117C282.831 265.85 284.613 262.163 286.104 259.035C287.741 255.7 288.383 254.561 288.797 254.126L289.729 252.427C293.209 238.362 294.846 228.481 294.494 222.992C294.494 222.06 294.286 221.148 293.851 220.299C293.644 220.009 293.644 219.512 293.996 219.305C294.141 219.242 294.286 219.16 294.431 219.16L302.324 218.662C306.943 218.372 309.864 218.662 311.355 219.657C312.847 220.651 313.779 222.287 313.841 223.986C313.841 225.685 313.696 227.466 313.344 229.165C313.282 229.6 313.551 229.952 313.986 230.014C314.193 230.076 314.483 229.952 314.628 229.807C323.515 220.568 332.753 215.597 342.282 215.017C349.884 214.519 354.006 218.145 354.441 225.747C354.586 228.17 354.441 230.573 353.944 232.997C353.447 235.42 352.246 240.102 350.112 247.352C345.638 262.909 343.504 273.369 343.856 278.486C344.063 282.111 345.493 282.546 346.549 282.546H346.756C347.751 282.484 349.594 281.759 352.867 278.631C355.436 276.207 357.631 273.514 359.558 270.594C361.609 267.259 363.535 263.779 365.234 260.216C367.284 256.094 369.004 252.406 370.495 249.278C370.992 248.139 371.427 247.29 371.779 246.586C371.779 246.523 371.842 246.523 371.842 246.441C373.892 237.761 376.316 230.594 379.092 225.042C382.282 218.497 385.907 214.167 389.76 212.034C393.592 209.9 398.853 208.699 405.606 208.264C406.456 208.202 407.16 208.823 407.243 209.61C407.243 209.672 407.243 209.672 407.243 209.755C407.305 210.542 406.891 211.392 406.041 212.448C401.277 217.627 396.658 226.803 392.183 239.75C387.709 252.676 385.782 263.551 386.28 272.23C386.57 276.207 387.564 278.279 389.263 278.279H389.408C393.592 277.989 398.936 272.81 405.109 262.784C411.158 253.256 415.901 243.023 419.319 232.293C419.754 230.863 420.314 228.875 421.101 226.182C421.888 223.489 422.447 221.707 422.737 220.713C423.027 219.719 423.586 218.29 424.291 216.529C424.767 215.141 425.471 213.877 426.3 212.697C426.342 212.634 426.383 212.593 426.424 212.531C426.984 211.909 427.812 211.081 428.765 210.045C429.759 208.989 430.899 208.202 432.245 207.767C435.58 206.772 438.998 206.13 442.478 205.84L450.37 205.343C450.723 205.198 451.158 205.405 451.303 205.778C451.448 206.13 451.24 206.565 450.868 206.71L450.723 206.855C447.16 209.631 443.68 216.239 440.427 226.534C437.735 235.275 435.456 243.375 433.674 250.563C431.893 257.751 430.754 262.142 430.339 263.716C429.904 265.27 428.993 269.123 427.564 274.944C426.507 279.356 425.575 282.981 424.788 285.881C424.643 286.233 424.788 286.668 425.14 286.813C425.347 286.875 425.637 286.875 425.844 286.668C433.592 282.049 440.697 276.497 447.16 270.179C450.785 266.554 479.557 236.187 479.557 255.389C477.755 326.668 405.523 363.54 338.16 369.651ZM216.565 168.305C213.79 168.45 208.88 172.718 201.506 191.754C196.39 204.908 191.418 219.905 186.654 236.394C186.509 236.829 186.799 237.181 187.151 237.326C187.441 237.388 187.793 237.326 188 237.036C200.802 217.482 209.668 201.221 214.37 188.502C217.291 179.823 218.637 174.064 218.492 171.516C218.285 168.388 217.063 168.388 216.71 168.388L216.565 168.305ZM400.034 304.503C397.072 305.063 360.656 314.446 364.343 322.504C368.548 331.639 393.115 319.998 400.034 304.503ZM274.048 210.812C278.606 210.604 284.281 208.885 285.628 202.132C286.27 199.066 284.426 195.586 283.287 194.592C282.148 193.598 280.594 193.163 278.523 193.308C276.451 193.453 273.965 194.737 271.625 196.933C268.497 199.854 268.642 204.038 269.636 206.814C270.568 209.175 272.205 210.729 274.048 210.812Z" fill="white"/>
<path opacity="0.25" d="M261.868 238.797C356.119 238.797 437.424 197.41 474.731 137.731L297.311 35.2769L261.951 14.873L226.591 35.2769L49.0264 137.814C86.3747 197.472 167.576 238.797 261.868 238.797Z" fill="url(#paint0_linear_51_169)"/>
<path d="M502.24 138.746L304.809 24.7331L261.951 0L219.093 24.7331L21.6625 138.746L0.844391 150.74V452.24L21.6625 464.254L221.578 579.675L262.013 602.979L302.448 579.675L502.364 464.254L523.037 452.323V150.74L502.24 138.746ZM508.081 443.664L494.886 451.287L294.97 566.708L262.013 585.703L229.056 566.708L29.1404 451.287L15.821 443.602V159.398L29.1612 151.713L49.0264 140.258L226.591 37.7212L261.951 17.3173L297.311 37.7212L474.731 140.175L494.741 151.734L508.06 159.419L508.081 443.664Z" fill="#0078BE"/>
<g clip-path="url(#clip0_51_169)">
<path d="M659.734 306.759C612.39 238.566 518.136 218.585 450.377 261.586L330.93 338.032C298.354 358.446 275.768 391.891 269.253 429.68C263.606 461.387 268.384 493.964 283.586 522.197C273.162 537.833 266.212 555.207 263.172 573.45C256.222 612.107 265.343 652.067 287.93 683.775C335.708 751.968 429.528 771.948 497.287 728.947L616.733 652.936C649.309 632.522 671.896 599.077 678.411 561.288C684.057 529.58 679.28 497.004 664.077 468.771C674.502 453.135 681.451 435.761 684.492 417.518C691.876 378.426 682.754 338.466 659.734 306.759Z" fill="#FF3E00"/>
<path d="M438.649 690.291C399.992 700.281 359.598 685.079 337.011 652.502C323.112 633.391 317.9 609.502 321.809 586.047C322.678 582.138 323.546 578.663 324.415 574.754L326.587 567.804L332.668 572.148C347.001 582.572 362.638 590.39 379.578 595.602L383.921 596.906L383.487 601.249C383.052 607.33 384.79 613.845 388.265 619.057C395.214 629.047 407.376 633.825 419.104 630.785C421.71 629.916 424.316 629.047 426.488 627.744L545.5 551.733C551.58 547.824 555.49 542.177 556.793 535.228C558.096 528.278 556.358 520.894 552.449 515.248C545.5 505.258 533.338 500.914 521.61 503.955C519.004 504.823 516.398 505.692 514.226 506.995L468.62 536.096C461.236 540.874 452.983 544.349 444.296 546.521C405.639 556.511 365.244 541.309 342.658 508.732C329.193 489.621 323.546 465.732 327.89 442.277C331.799 419.691 345.698 399.276 365.244 387.114L484.69 311.103C492.074 306.325 500.327 302.85 509.014 300.244C547.671 290.254 588.066 305.456 610.652 338.033C624.551 357.144 629.764 381.033 625.854 404.488C624.986 408.397 624.117 411.872 622.814 415.781L620.642 422.731L614.561 418.387C600.228 407.963 584.591 400.145 567.651 394.933L563.308 393.629L563.742 389.286C564.177 383.205 562.439 376.69 558.964 371.478C552.015 361.488 539.853 357.144 528.126 360.184C525.519 361.053 522.913 361.922 520.742 363.225L401.73 439.236C395.649 443.145 391.739 448.792 390.436 455.742C389.133 462.691 390.871 470.075 394.78 475.722C401.73 485.712 413.891 490.055 425.619 487.015C428.225 486.146 430.831 485.277 433.003 483.974L478.61 454.873C485.994 450.095 494.246 446.62 502.933 444.014C541.59 434.024 581.985 449.226 604.571 481.803C618.47 500.914 623.683 524.803 619.773 548.258C615.864 570.845 601.965 591.259 582.419 603.421L462.973 679.432C455.589 684.21 447.336 687.685 438.649 690.291Z" fill="white"/>
</g>
<defs>
<linearGradient id="paint0_linear_51_169" x1="261.195" y1="-105.862" x2="262.163" y2="239.343" gradientUnits="userSpaceOnUse">
<stop stop-color="white" stop-opacity="0.83"/>
<stop offset="0.56" stop-color="white" stop-opacity="0.37"/>
<stop offset="1" stop-color="white" stop-opacity="0"/>
</linearGradient>
<clipPath id="clip0_51_169">
<rect width="426.098" height="512.534" fill="white" transform="translate(261 239)"/>
</clipPath>
</defs>
</svg>
