<svg fill="none" xmlns="http://www.w3.org/2000/svg" viewBox="0 0 524 603"><path d="m502.2 138.7-197.4-114L262 0l-43 24.7-197.3 114-20.9 12v301.5l20.9 12 199.9 115.5L262 603l40.4-23.3 200-115.4 20.6-12V150.7z" fill="#0088DA"/><path d="m262 449.8.6-.6h-.2z" fill="#E2B058"/><path opacity=".9" d="M88.6 324.8c-.8 0-2.3 0 0 0m0 0H88h1.2zq.9 0 0 0m58.9-34.7c4.9-19-18.1-44.2-20-46.6-27.7-28.3-13.5-56.5 5.8-53.4 13.8 2.3 6.7 22.6 14.1 24.6h.2c4.4.4 13.2-10.3 14.5-14 5-14-23.8-22.6-32.5-22-17.6 1-29 10.5-36.1 26.3-13 28.9 11.2 48.2 25.9 68 11 15 10.5 28.4-3 41.2-15 14.2-30.1-5.9-32.1-19.6-1.8-12.6-3.8-20.8-14.4-4.8-9.7 14.9 3.9 33.1 16.1 35 3 .3 48.6 10.3 61.5-34.7m190.7 79.6c-67.4 6-166.6 15.2-187.4 88q-.3.8-1 .6-.3 0-.4-.4c-20.5-35-64.5-60.6-105.3-59.4q-.6 0-.8-.5 0-.7.5-.9c105-52.1 212.4-27.1 325.8-47.4 47.6-12.4 77.1-34.6 93.2-72.4 2.6-4.6 2.5-11.7-5-6.6-11.3 7.7-21.9 19-34.3 25l-1.9.8q-.3.1-.4.5c-36 82.2-136.3 14.4-18.6-2.7q.5-.1.5-.5l6.6-21.5q.2-.7-.5-1-.5 0-.8.3a104 104 0 0 1-8.9 11.3 34 34 0 0 1-10 8.1q-4.1 1.5-8.7 1.9-5.4.3-9-4.2a23 23 0 0 1-3.9-13.2v-3.2q0-.7-.5-.9-.7 0-.9.5a95 95 0 0 1-15.7 22q-7.1 7-13.4 7.5-12 .7-12.8-13.4-.8-13.5 10.7-54.8.6-1.8.5-3.6-.2-3.7-4.5-3.3-5 .5-9.2 3.8a32 32 0 0 0-7.8 10q-3.6 6.5-6.4 13.2-3 7.5-4.9 15.2l-3.4 14.4-2.4 12.3c-.6 3-1.2 6.7-1.4 7.2l-.1.6-19.5 1.3c-.5-3.5 3.4-16.8 3.8-18.8a90 90 0 0 1-13.7 18.6q-7.1 7-13.4 7.5h-.9q-10.4 0-11.4-16-.2-3.2-.2-6.5 0-.7-.5-1-.7 0-.9.5-16 29.5-29.4 30.2-11.7.8-12.8-14-1-16.4 9-47.2 2-7.6 1.9-10.4c-.2-2.9-1.5-3.2-2.6-3.2h-.3c-1 0-3 .6-7.1 3.3a38 38 0 0 0-9.5 8.9q-4.6 6-7.3 13.1-2.7 7.5-4.4 13a165 165 0 0 0-3.2 13.2l-2.8 12.8q-1.3 4.8-2.6 11.3l-.1.6-18.8 1.2q-.7 0-.8-.7v-.3q4.2-14.6 11.7-46.2 7.6-31.7 13.2-50 4.8-15.8 11.4-30.9a85 85 0 0 1 13.6-21.6 26 26 0 0 1 17.6-9.6q10-.5 10.8 9.8.5 7-4 18.6A240 240 0 0 1 196 238q-.5.6 0 1 .6.6 1 0 3.3-2.4 6.8-4.2 5.4-2.8 11.6-3.3 11.4-.7 12.1 10.3.3 4-.8 8l-2.4 8.1-2.2 7.6L218 282a51 51 0 0 0-1.6 13.7c.3 4.2 2 4.2 2.6 4.2h.2q10.8-.7 25.2-37 0-.3.2-.4 3.3-12 8.3-23.3 6-13.2 14.5-13.7l11.3-.6q.8 0 .8.7 0 .4-.2.6a45 45 0 0 0-7 13.6l-6.3 16.9q-2.1 5.6-4.6 15.3a50 50 0 0 0-2 15.3c.3 5 2.2 5 2.9 5h.2c1 0 2.8-.7 6.2-3.8q3.8-3.5 6.6-7.9 2.5-4 5.6-10.5l5.3-11c1.6-3.4 2.3-4.5 2.7-5l1-1.7q5.1-21.2 4.7-29.4 0-1.5-.6-2.7-.5-.6.1-1l.4-.1 8-.5q6.7-.5 9 1 2.3 1.6 2.4 4.3 0 2.6-.5 5.2 0 .7.7.8.4 0 .6-.2a43 43 0 0 1 27.7-14.8q11.4-.7 12.1 10.7.3 3.7-.5 7.3-.7 3.5-3.8 14.4-6.8 23.4-6.2 31c.2 3.7 1.6 4.1 2.6 4.1h.3c1 0 2.8-.7 6-3.9q3.9-3.5 6.8-8 3.1-5 5.6-10.4l5.3-11 1.3-2.6v-.2q3-13 7.3-21.4a29 29 0 0 1 10.7-13 38 38 0 0 1 15.8-3.7q1.5 0 1.6 1.3v.2q.2 1-1.2 2.6a81 81 0 0 0-13.8 27.3 88 88 0 0 0-6 32.5q.6 6 3 6h.2q6.4-.3 15.7-15.4a131 131 0 0 0 14.2-30.5l1.8-6.1 1.6-5.5a53 53 0 0 1 3.6-8l.1-.2 2.4-2.5q1.5-1.6 3.4-2.2 5-1.5 10.3-2l7.9-.5q.6-.1.9.5.2.6-.4 1h-.2q-5.3 4.2-10.3 19.7a454 454 0 0 0-10 37.2l-2.8 11.2-2.8 11q-.2.6.3 1 .4 0 .7-.2a114 114 0 0 0 21.4-16.5c3.6-3.6 32.4-34 32.4-14.8-1.8 71.3-74 108.1-141.4 114.3M216.6 168.3c-2.8.1-7.7 4.4-15 23.5a531 531 0 0 0-15 44.6q0 .7.6 1 .4.1.8-.4a260 260 0 0 0 26.4-48.5q4.3-13 4-17c-.1-3.1-1.3-3.1-1.7-3.1zM400 304.5c-3 .6-39.3 10-35.7 18 4.2 9.1 28.8-2.5 35.7-18m-126-93.7c4.6-.2 10.3-2 11.6-8.7.7-3-1.2-6.5-2.3-7.5q-1.7-1.5-4.8-1.3-3.1.3-6.9 3.6c-3.1 3-3 7.1-2 10q1.6 3.6 4.4 4" fill="#fff"/><path opacity=".3" d="M261.9 238.8c94.2 0 175.5-41.4 212.8-101L297.3 35.2 262 14.9l-35.4 20.4L49 137.8c37.4 59.7 118.6 101 212.9 101" fill="url(#a)"/><path d="m502.2 138.7-197.4-114L262 0l-43 24.7-197.3 114-20.9 12v301.5l20.9 12 199.9 115.5L262 603l40.4-23.3 200-115.4 20.6-12V150.7zm5.9 305-13.2 7.6-200 115.4-32.9 19-33-19L29.2 451.3l-13.3-7.7V159.4l13.4-7.7L49 140.3 226.6 37.7 262 17.3l35.3 20.4 177.4 102.5 20 11.5 13.4 7.7z" fill="#0078BE"/><defs><linearGradient id="a" x1="261.2" y1="-105.9" x2="262.2" y2="239.3" gradientUnits="userSpaceOnUse"><stop stop-color="#fff" stop-opacity=".8"/><stop offset=".6" stop-color="#fff" stop-opacity=".4"/><stop offset="1" stop-color="#fff" stop-opacity="0"/></linearGradient></defs></svg>